<?xml version="1.0" encoding="iso-8859-1"?>
<!-- Generator: Adobe Illustrator 21.0.0, SVG Export Plug-In . SVG Version: 6.00 Build 0)  -->
<svg version="1.1" id="&#x421;&#x43B;&#x43E;&#x439;_1"
	 xmlns="http://www.w3.org/2000/svg" xmlns:xlink="http://www.w3.org/1999/xlink" x="0px" y="0px" viewBox="0 0 250.667 66.667"
	 style="enable-background:new 0 0 250.667 66.667;" xml:space="preserve">
<g>
	<path style="fill:#FF4400;" d="M23.781,56.869H11.393V9.484H32.31c5.37,0,9.567,1.771,12.591,5.314
		c3.023,3.543,4.49,7.706,4.4,12.489c0,4.694-1.501,8.756-4.501,12.185c-3.002,3.431-7.165,5.145-12.49,5.145h-8.529V56.869z
		 M23.578,33.853h8.732c1.534,0,2.776-0.688,3.723-2.064c0.948-1.376,1.422-2.989,1.422-4.84c0-1.805-0.452-3.373-1.354-4.705
		c-0.903-1.331-2.166-1.997-3.791-1.997h-8.732V33.853z"/>
	<path style="fill:#FF4400;" d="M86.803,40.081l9.274,15.027v1.761H82.944l-8.124-14.825h-6.499v14.825H55.934V9.484h20.85
		c5.37,0,9.555,1.67,12.557,5.009c3,3.34,4.501,7.266,4.501,11.778C93.752,32.32,91.406,36.923,86.803,40.081z M68.119,31.958h8.597
		c1.625,0,2.888-0.586,3.791-1.76c0.902-1.173,1.354-2.572,1.354-4.197s-0.44-2.989-1.32-4.096c-0.88-1.105-2.156-1.658-3.825-1.658
		h-8.597V31.958z"/>
	<path style="fill:#FF4400;" d="M149.079,33.244c0,7.221-2.268,13.122-6.803,17.701c-4.535,4.581-10.391,6.871-17.566,6.871
		c-3.205,0-6.239-0.52-9.104-1.557c-2.866-1.038-5.438-2.549-7.717-4.535c-2.279-1.985-4.085-4.569-5.416-7.751
		c-1.332-3.182-1.997-6.758-1.997-10.729c0-5.235,1.195-9.758,3.588-13.573c2.392-3.813,5.404-6.61,9.037-8.394
		c3.632-1.782,7.57-2.674,11.812-2.674c3.068,0,6.036,0.531,8.902,1.591c2.865,1.061,5.438,2.583,7.717,4.569
		c2.277,1.986,4.105,4.569,5.482,7.751S149.079,29.274,149.079,33.244z M112.864,33.244c0,4.017,1.173,7.165,3.52,9.443
		c2.346,2.279,5.145,3.418,8.394,3.418c3.204,0,5.991-1.139,8.36-3.418c2.369-2.278,3.554-5.427,3.554-9.443
		c0-4.016-1.174-7.164-3.521-9.443c-2.347-2.278-5.1-3.418-8.259-3.418c-3.34,0-6.183,1.117-8.529,3.351
		C114.037,25.967,112.864,29.139,112.864,33.244z"/>
	<path style="fill:#4D4D4D;" d="M169.117,9.552v36.284h17.126v11.102h-29.514V9.552H169.117z"/>
	<path style="fill:#4D4D4D;" d="M215.69,29.928l18.751-20.511h4.399v47.521h-12.388V35.072l-10.086,10.561h-1.422l-10.086-10.561
		v21.865h-12.388V9.416h4.399L215.69,29.928z"/>
</g>
<g>
</g>
<g>
</g>
<g>
</g>
<g>
</g>
<g>
</g>
<g>
</g>
</svg>
